<?xml version="1.0" standalone="no"?>
<!DOCTYPE svg PUBLIC "-//W3C//DTD SVG 20010904//EN"
 "http://www.w3.org/TR/2001/REC-SVG-20010904/DTD/svg10.dtd">
<svg version="1.0" xmlns="http://www.w3.org/2000/svg"
 width="920.000000pt" height="330.000000pt" viewBox="0 0 920.000000 330.000000"
 preserveAspectRatio="xMidYMid meet">

<g transform="translate(0.000000,330.000000) scale(0.100000,-0.100000)"
fill="#000000" stroke="none">
<path d="M6616 3003 c4 -10 18 -58 31 -108 39 -148 44 -314 41 -1210 l-3 -830
-26 -56 -26 -56 -82 -11 c-96 -14 -101 -16 -101 -45 0 -45 6 -46 165 -37 83 5
218 6 300 3 187 -6 259 3 263 34 4 28 -16 38 -101 51 -128 20 -130 25 -134
377 -2 154 -1 353 3 443 l6 163 38 19 c56 29 175 60 256 67 127 10 214 -36
271 -144 54 -102 63 -170 63 -475 1 -330 8 -405 44 -456 32 -47 113 -97 190
-116 80 -21 261 -32 270 -17 18 28 -6 51 -75 71 -84 25 -140 71 -157 128 -8
27 -12 162 -12 434 0 358 -2 402 -19 471 -25 96 -42 129 -95 182 -137 136
-437 121 -708 -35 -37 -21 -70 -35 -73 -30 -3 5 -3 96 -1 202 6 298 -7 558
-34 643 -40 130 -133 255 -244 329 -45 30 -61 33 -50 9z"/>
<path d="M4250 2874 c-148 -103 -231 -262 -259 -494 -6 -47 -13 -373 -15 -725
-5 -643 -13 -829 -41 -872 -19 -28 -59 -49 -110 -58 -95 -15 -95 -16 -95 -41
l0 -24 365 0 c201 0 365 4 365 9 0 4 -9 20 -20 33 -16 21 -34 28 -92 36 -111
17 -118 28 -119 200 -4 387 1 1439 6 1522 8 120 29 276 49 360 23 94 23 94
-34 54z"/>
<path d="M3284 2652 c-61 -29 -84 -64 -84 -130 0 -95 57 -155 146 -155 88 0
155 62 156 146 2 110 -117 185 -218 139z"/>
<path d="M4740 2646 c-45 -24 -80 -73 -80 -111 0 -44 24 -101 55 -132 30 -30
39 -33 89 -33 107 0 166 54 166 153 0 55 -34 100 -95 128 -53 25 -82 24 -135
-5z"/>
<path d="M299 2142 c-74 -76 -167 -174 -207 -219 -84 -94 -85 -92 50 -100 l88
-6 0 -427 c0 -449 5 -511 45 -590 50 -99 123 -134 275 -133 190 2 370 79 370
160 0 12 -4 24 -9 27 -4 3 -54 -6 -110 -19 -162 -39 -218 -32 -275 35 -56 67
-59 98 -64 541 l-4 407 217 3 c201 4 218 5 231 23 18 25 18 77 0 102 -13 18
-30 19 -229 22 l-216 4 -3 144 c-2 85 -7 147 -14 154 -8 8 -48 -28 -145 -128z"/>
<path d="M8393 2133 c-247 -262 -266 -284 -255 -295 6 -6 51 -13 101 -16 l91
-5 1 -396 c0 -218 2 -407 4 -421 2 -14 6 -48 9 -77 11 -114 87 -218 178 -244
143 -41 409 15 481 101 29 33 32 47 18 68 -7 12 -27 9 -112 -13 -180 -47 -252
-27 -306 83 l-28 57 -3 421 -3 422 211 3 c208 4 212 4 231 28 24 30 24 62 0
92 -19 24 -22 24 -229 27 l-210 3 -4 137 c-5 131 -11 172 -28 172 -4 0 -70
-66 -147 -147z"/>
<path d="M6154 2231 c-80 -36 -107 -109 -86 -231 6 -35 10 -66 8 -67 -1 -2
-58 9 -127 23 -100 21 -141 25 -214 21 -225 -13 -439 -116 -498 -239 -33 -69
-42 -143 -28 -236 7 -47 18 -100 26 -117 20 -50 85 -116 138 -140 46 -22 47
-23 20 -28 -78 -16 -154 -105 -161 -189 -3 -47 0 -58 27 -95 42 -58 83 -76
251 -107 341 -63 555 -136 649 -221 55 -50 71 -83 71 -147 -1 -141 -112 -242
-312 -284 -89 -19 -240 -14 -314 11 -70 23 -142 80 -179 139 -25 42 -30 59
-29 110 2 104 53 188 133 222 44 19 142 18 189 -1 83 -35 104 -88 56 -144 -29
-35 -67 -40 -135 -19 -48 14 -57 7 -34 -29 41 -62 110 -90 198 -80 42 5 58 13
84 41 37 40 57 104 48 149 -23 109 -136 176 -310 185 -200 10 -337 -64 -421
-228 -76 -147 -4 -310 171 -390 118 -54 225 -75 385 -74 126 0 158 4 244 27
295 82 423 251 376 498 -13 70 -42 127 -90 182 -79 89 -108 102 -460 192 -209
54 -329 93 -377 124 -24 14 -43 29 -43 33 0 15 46 49 81 59 28 9 59 7 140 -6
180 -30 354 -5 502 72 127 67 187 167 187 313 0 99 -23 164 -97 273 -46 67
-53 84 -47 109 7 36 59 95 125 144 40 29 49 41 49 66 0 42 -17 68 -55 84 -46
19 -92 17 -141 -5z m-237 -339 c56 -29 90 -82 108 -168 26 -123 16 -263 -25
-344 -73 -143 -318 -175 -436 -56 -62 61 -78 125 -72 287 4 113 8 133 32 183
49 99 108 127 261 122 70 -2 100 -7 132 -24z"/>
<path d="M1950 2009 c-36 -14 -79 -58 -103 -104 -15 -29 -22 -65 -25 -127 -4
-75 0 -104 32 -230 l37 -143 -72 -150 c-86 -180 -148 -290 -159 -278 -11 12
-24 52 -120 378 -140 477 -136 461 -115 485 11 12 32 20 54 21 72 2 86 11 86
54 l0 40 -289 0 c-284 0 -289 0 -296 -21 -14 -36 10 -66 63 -80 101 -26 118
-50 188 -269 28 -88 73 -232 101 -320 57 -177 151 -439 191 -527 14 -31 35
-61 46 -68 19 -10 25 -4 72 67 28 43 105 187 170 321 92 186 124 242 138 242
15 0 28 -25 61 -117 70 -192 171 -446 191 -480 34 -55 45 -50 90 38 49 98 175
400 333 801 l117 296 42 7 c95 15 147 49 147 96 0 18 -12 19 -233 19 l-233 0
-17 -29 -17 -29 33 -21 c18 -11 54 -26 80 -33 26 -6 47 -16 47 -20 0 -5 -11
-57 -25 -116 -34 -144 -83 -299 -168 -531 -64 -175 -72 -192 -84 -175 -61 81
-211 414 -220 484 -3 33 5 83 32 185 34 129 36 144 25 193 -13 61 -47 105
-101 132 -42 22 -62 24 -99 9z m35 -174 c12 -30 16 -62 13 -97 -5 -57 -46
-164 -58 -151 -13 15 -40 151 -40 203 0 63 13 90 45 90 19 0 27 -9 40 -45z"/>
<path d="M3278 1901 c-169 -70 -228 -101 -228 -121 0 -3 28 -12 62 -19 85 -17
123 -56 133 -132 11 -91 0 -736 -15 -807 -13 -68 -9 -65 -105 -77 -27 -4 -62
-13 -77 -21 -25 -13 -46 -49 -35 -61 3 -3 150 -6 327 -6 301 -2 322 -1 338 16
16 18 15 20 -6 37 -12 10 -48 24 -79 30 -84 18 -99 39 -108 144 -8 95 1 971
11 1049 5 41 4 47 -12 47 -11 0 -103 -36 -206 -79z"/>
<path d="M4885 1958 c-27 -10 -121 -49 -207 -85 -181 -76 -194 -91 -100 -111
35 -7 70 -23 90 -39 49 -41 55 -102 49 -491 -4 -308 -15 -439 -38 -468 -5 -6
-36 -14 -69 -17 -33 -4 -74 -14 -90 -22 -27 -14 -48 -50 -36 -62 3 -3 150 -6
327 -7 l321 -1 9 24 c13 33 -3 48 -61 56 -28 4 -64 17 -82 29 -29 19 -34 29
-41 81 -9 70 -2 1042 8 1098 9 44 -1 46 -80 15z"/>
</g>
</svg>
